<?xml version="1.0" encoding="UTF-8"?>
<svg version="1.1" xmlns="http://www.w3.org/2000/svg" width="35" height="35">
<path d="M0 0 C11.55 0 23.1 0 35 0 C35 11.55 35 23.1 35 35 C23.45 35 11.9 35 0 35 C0 23.45 0 11.9 0 0 Z " fill="#FBFCFD" transform="translate(0,0)"/>
<path d="M0 0 C2.3125 -0.1875 2.3125 -0.1875 5 0 C6.02196992 0.97753644 7.01979625 1.9805881 8 3 C11.10007201 4.20049407 11.10007201 4.20049407 14 5 C13.8125 7.3125 13.8125 7.3125 13 10 C10.10451959 12.20970874 8.66842255 13 5 13 C4.67 14.65 4.34 16.3 4 18 C-0.77576339 17.5317879 -4.04476345 16.75668002 -8 14 C-7.55966813 8.80408388 -7.11696661 5.33664919 -4 1 C-1 2 -1 2 0 3 C0 2.01 0 1.02 0 0 Z " fill="#2C4878" transform="translate(13,11)"/>
<path d="M0 0 C0.66 0.33 1.32 0.66 2 1 C3.53668865 1.22467831 5.07968054 1.40796805 6.625 1.5625 C7.44226563 1.64628906 8.25953125 1.73007813 9.1015625 1.81640625 C9.72804688 1.87699219 10.35453125 1.93757812 11 2 C10.34 3.65 9.68 5.3 9 7 C2.63458326 7.43899426 0.3383562 6.67753427 -5 3 C-7.79561167 3.12245809 -7.79561167 3.12245809 -10 4 C-10 3.34 -10 2.68 -10 2 C-6.33134759 -0.44576827 -4.32799657 -0.23607254 0 0 Z " fill="#1C3A6E" transform="translate(21,6)"/>
<path d="M0 0 C3 1 3 1 5 4 C5.125 7.1875 5.125 7.1875 5 10 C2.69 9.67 0.38 9.34 -2 9 C-2.6875 7.3125 -2.6875 7.3125 -3 5 C-1.5625 2.25 -1.5625 2.25 0 0 Z " fill="#103167" transform="translate(9,12)"/>
<path d="M0 0 C0.33 0.66 0.66 1.32 1 2 C3.11327425 2.90725434 3.11327425 2.90725434 5.5625 3.625 C6.38878906 3.88539062 7.21507812 4.14578125 8.06640625 4.4140625 C9.02353516 4.70410156 9.02353516 4.70410156 10 5 C8.02 5.99 8.02 5.99 6 7 C5.443125 6.525625 4.88625 6.05125 4.3125 5.5625 C1.81653926 3.87604004 -0.0446237 3.41046893 -3 3 C-2.67 4.65 -2.34 6.3 -2 8 C-3.32 6.68 -4.64 5.36 -6 4 C-5.67 3.01 -5.34 2.02 -5 1 C-3.35 0.67 -1.7 0.34 0 0 Z " fill="#A2ADC3" transform="translate(16,8)"/>
<path d="M0 0 C2.3125 -0.25 2.3125 -0.25 5 0 C6.8125 2 6.8125 2 8 4 C7.34 4.66 6.68 5.32 6 6 C6 5.34 6 4.68 6 4 C4.68 4.99 3.36 5.98 2 7 C0.5393715 4.35261084 0 3.10551666 0 0 Z " fill="#17366B" transform="translate(13,11)"/>
<path d="M0 0 C0.33 1.32 0.66 2.64 1 4 C0.113125 3.814375 -0.77375 3.62875 -1.6875 3.4375 C-4.85178811 3.01957516 -6.94839642 3.19222258 -10 4 C-10 3.34 -10 2.68 -10 2 C-6.3558226 -0.4294516 -4.28758728 -0.16179575 0 0 Z " fill="#37507F" transform="translate(21,6)"/>
</svg>
