<svg xmlns="http://www.w3.org/2000/svg" width="200" height="200" viewBox="0 0 200 200" version="1.1"><path d="M -0 100.005 L -0 200.010 100.250 199.755 L 200.500 199.500 200.755 99.750 L 201.010 0 100.505 0 L 0 0 -0 100.005 M 0.481 100.500 C 0.481 155.500, 0.602 178.147, 0.750 150.826 C 0.898 123.506, 0.898 78.506, 0.750 50.826 C 0.602 23.147, 0.481 45.500, 0.481 100.500 M 71 92 L 71 112 76.500 112 L 82 112 82 104.500 L 82 97 90 97 L 98 97 98 92 L 98 87 90 87 C 82.133 87, 82 86.958, 82 84.500 L 82 82 92 82 L 102 82 102 77 L 102 72 86.500 72 L 71 72 71 92 M 115.500 73.665 C 108.172 77.537, 105 83.078, 105 92.010 C 105 104.636, 112.368 112, 125 112 C 134.933 112, 142.459 107.087, 144.874 99.027 C 148.106 88.238, 143.590 77.363, 134.259 73.464 C 129.634 71.531, 119.329 71.642, 115.500 73.665 M 158.718 86.750 C 155.546 94.862, 152.062 103.425, 150.976 105.777 C 149.889 108.129, 149 110.491, 149 111.027 C 149 111.562, 151.700 112, 155 112 C 159.580 112, 161 111.656, 161 110.547 C 161 109.748, 161.522 107.948, 162.161 106.547 C 163.236 104.188, 163.813 104, 170 104 L 176.680 104 178 108 L 179.320 112 185.267 112 C 189.641 112, 191.074 111.669, 190.683 110.750 C 190.391 110.063, 188.291 104.775, 186.016 99 C 181.935 88.642, 179.089 81.608, 176.405 75.250 C 175.103 72.168, 174.760 72, 169.758 72 L 164.484 72 158.718 86.750 M 25.917 79.931 C 21.398 80.814, 15 84.712, 15 86.582 C 15 88.288, 17.980 88.422, 21.389 86.869 C 22.755 86.246, 24.689 86.068, 25.686 86.472 C 27.059 87.028, 26.285 87.524, 22.505 88.511 C 19.758 89.228, 17.180 89.611, 16.776 89.361 C 15.441 88.536, 12.210 90.924, 10.177 94.237 C 7.644 98.366, 7.107 104.189, 9.035 106.638 C 10.351 108.311, 10.338 108.374, 8.906 107.257 C 7.532 106.186, 7.153 106.547, 6.156 109.873 C 5.520 111.996, 5 113.968, 5 114.257 C 5 115.591, 21.058 120.972, 25.089 120.989 C 27.662 121, 30 117.888, 30 114.453 C 30 113.603, 30.956 113, 32.304 113 C 35.830 113, 43.481 107.668, 44.912 104.213 C 46.881 99.459, 46.042 97.671, 41.414 96.755 C 38.701 96.219, 36.203 94.750, 33.922 92.351 L 30.500 88.752 34.760 91.395 C 38.661 93.815, 39.544 93.973, 45.251 93.269 C 51.205 92.534, 51.580 92.321, 53.661 88.500 C 54.859 86.300, 55.875 84.127, 55.919 83.670 C 55.964 83.214, 53.188 83.135, 49.750 83.494 C 44.342 84.060, 42.721 83.801, 37.721 81.574 C 31.608 78.851, 31.510 78.837, 25.917 79.931 M 117.982 84.519 C 116.130 86.491, 115.615 88.150, 115.615 92.155 C 115.615 96.552, 116.020 97.621, 118.491 99.746 C 120.943 101.855, 122.097 102.149, 126.329 101.742 C 133.508 101.053, 136.445 96.742, 134.875 89.199 C 133.870 84.374, 130.621 82, 125.021 82 C 121.321 82, 119.856 82.524, 117.982 84.519 M 168.706 87.562 C 168.405 88.628, 167.868 90.513, 167.512 91.750 C 166.941 93.735, 167.227 94, 169.933 94 C 173.478 94, 173.550 93.690, 171.085 89.062 C 169.515 86.115, 169.176 85.901, 168.706 87.562 M 29 98 C 29 98.550, 29.450 99, 30 99 C 30.550 99, 31 98.550, 31 98 C 31 97.450, 30.550 97, 30 97 C 29.450 97, 29 97.450, 29 98 M 23.825 107.326 C 23.452 109.151, 23.592 109.808, 24.218 109.182 C 24.751 108.649, 25.011 107.377, 24.794 106.356 C 24.503 104.981, 24.251 105.233, 23.825 107.326 M 17.250 110.689 C 18.212 110.941, 19.788 110.941, 20.750 110.689 C 21.712 110.438, 20.925 110.232, 19 110.232 C 17.075 110.232, 16.288 110.438, 17.250 110.689 M 81 124.033 C 81 126.893, 81.419 128, 82.500 128 C 83.325 128, 84 127.325, 84 126.500 C 84 125.675, 84.642 125, 85.427 125 C 86.211 125, 87.059 124.213, 87.311 123.250 C 87.562 122.287, 87.820 122.912, 87.884 124.638 L 88 127.775 97.500 127.917 C 105.984 128.044, 107.003 127.869, 107.030 126.280 C 107.059 124.593, 107.114 124.591, 108.080 126.250 C 108.763 127.423, 110.319 127.995, 112.800 127.985 C 117.778 127.964, 119.226 126.861, 118.830 123.391 C 118.528 120.748, 118.122 120.473, 114.099 120.185 C 111.255 119.982, 109.403 120.335, 108.864 121.185 C 108.262 122.136, 108.026 122.163, 108.015 121.283 C 108.004 120.389, 104.428 120.067, 94.500 120.067 L 81 120.067 81 124.033 M 123.200 121.200 C 121.561 122.839, 121.692 125.500, 123.487 126.989 C 125.423 128.596, 129.723 127.500, 130.311 125.249 C 130.655 123.934, 130.797 124.058, 130.884 125.750 C 131.011 128.218, 133 128.922, 133 126.500 C 133 125.675, 133.844 125, 134.875 125 C 136.208 125, 136.750 124.278, 136.750 122.500 C 136.750 120.413, 136.275 120, 133.875 120 C 131.815 120, 130.991 120.496, 130.970 121.750 C 130.941 123.417, 130.891 123.417, 129.920 121.750 C 128.750 119.741, 124.968 119.432, 123.200 121.200 M 140.642 123.624 C 138.642 127.819, 139.187 128.989, 142.250 127.076 C 143.793 126.112, 144.517 126.052, 144.788 126.864 C 145.288 128.363, 149.279 128.321, 150.800 126.800 C 151.733 125.867, 152 125.867, 152 126.800 C 152 127.467, 153.333 128, 155 128 C 157.833 128, 158 127.778, 158 124 C 158 120.248, 157.819 120, 155.083 120 C 153.479 120, 151.940 120.563, 151.662 121.250 C 151.259 122.250, 151.142 122.250, 151.079 121.250 C 151.036 120.563, 150.325 120, 149.500 120 C 148.442 120, 147.985 121.106, 147.948 123.750 L 147.897 127.500 146.342 123.750 C 144.388 119.041, 142.844 119.007, 140.642 123.624 M 159 124 C 159 126.200, 159.450 128, 160 128 C 160.550 128, 161 127.550, 161 127 C 161 126.450, 161.900 126, 163 126 C 164.100 126, 165 126.450, 165 127 C 165 128.423, 169.346 128.240, 170.925 126.750 C 171.985 125.750, 172.342 125.750, 172.708 126.750 C 173.404 128.648, 182 128.416, 182 126.500 C 182 125.667, 181.111 125, 180 125 C 178.533 125, 178 124.333, 178 122.500 C 178 121.125, 177.550 120, 177 120 C 176.450 120, 175.982 121.463, 175.961 123.250 L 175.922 126.500 174.509 123.250 C 172.782 119.277, 170.508 119.064, 169.162 122.750 L 168.158 125.500 168.079 122.750 C 168.021 120.734, 167.488 120, 166.083 120 C 165.029 120, 163.960 120.563, 163.708 121.250 C 163.342 122.250, 162.985 122.250, 161.925 121.250 C 159.705 119.156, 159 119.819, 159 124 M 104.079 123.583 C 104.127 124.748, 104.364 124.985, 104.683 124.188 C 104.972 123.466, 104.936 122.603, 104.604 122.271 C 104.272 121.939, 104.036 122.529, 104.079 123.583 M 115 124 C 115 124.550, 115.450 125, 116 125 C 116.550 125, 117 124.550, 117 124 C 117 123.450, 116.550 123, 116 123 C 115.450 123, 115 123.450, 115 124 M 125 124 C 125 124.550, 125.675 125, 126.500 125 C 127.325 125, 128 124.550, 128 124 C 128 123.450, 127.325 123, 126.500 123 C 125.675 123, 125 123.450, 125 124" stroke="none" fill="#ffffff" fill-rule="evenodd"/><path d="M 176.750 120.571 C 176.338 120.990, 176 122.608, 176 124.167 C 176 126.725, 176.316 126.987, 179.250 126.864 C 181.496 126.770, 181.823 126.596, 180.309 126.302 C 178.723 125.994, 178.032 125.038, 177.809 122.843 C 177.639 121.174, 177.162 120.152, 176.750 120.571 M 95.232 124 C 95.232 125.925, 95.438 126.713, 95.689 125.750 C 95.941 124.787, 95.941 123.213, 95.689 122.250 C 95.438 121.287, 95.232 122.075, 95.232 124" stroke="none" fill="#f38759" fill-rule="evenodd"/><path d="" stroke="none" fill="#f38b5c" fill-rule="evenodd"/><path d="M 169.766 123.364 L 168.203 126.642 171.459 126.571 C 174.569 126.503, 174.673 126.376, 173.759 123.748 C 172.373 119.758, 171.525 119.676, 169.766 123.364 M 171.079 123.583 C 171.127 124.748, 171.364 124.985, 171.683 124.188 C 171.972 123.466, 171.936 122.603, 171.604 122.271 C 171.272 121.939, 171.036 122.529, 171.079 123.583" stroke="none" fill="#f28a47" fill-rule="evenodd"/><path d="M 71.419 92 C 71.419 102.725, 71.566 107.112, 71.746 101.750 C 71.925 96.388, 71.925 87.612, 71.746 82.250 C 71.566 76.888, 71.419 81.275, 71.419 92 M 97 123.417 C 97 125.296, 96.511 126.996, 95.914 127.195 C 95.316 127.395, 97.004 127.587, 99.664 127.623 C 102.324 127.660, 103.263 127.504, 101.750 127.278 C 99.364 126.922, 99 126.413, 99 123.434 C 99 121.545, 98.550 120, 98 120 C 97.450 120, 97 121.537, 97 123.417 M 148.116 123.750 C 148.180 125.813, 148.438 126.713, 148.689 125.750 C 149.257 123.576, 149.856 123.560, 152.171 125.655 C 153.914 127.232, 153.995 127.127, 153.900 123.405 C 153.816 120.102, 153.691 119.885, 153.088 122 L 152.375 124.500 150.947 122.250 C 148.883 118.998, 147.984 119.474, 148.116 123.750 M 156.252 123.500 C 156.263 125.700, 156.468 126.482, 156.707 125.238 C 156.946 123.994, 156.937 122.194, 156.687 121.238 C 156.437 120.282, 156.241 121.300, 156.252 123.500 M 163.471 123.953 C 164.044 124.881, 163.688 125.036, 162.125 124.540 C 160.478 124.017, 160.018 124.274, 160.079 125.683 C 160.122 126.682, 160.376 126.963, 160.644 126.306 C 160.911 125.650, 161.730 125.343, 162.463 125.624 C 164.186 126.285, 165.401 124.366, 163.862 123.415 C 163.095 122.941, 162.960 123.126, 163.471 123.953 M 101.813 125.683 C 102.534 125.972, 103.397 125.936, 103.729 125.604 C 104.061 125.272, 103.471 125.036, 102.417 125.079 C 101.252 125.127, 101.015 125.364, 101.813 125.683 M 178.813 125.683 C 179.534 125.972, 180.397 125.936, 180.729 125.604 C 181.061 125.272, 180.471 125.036, 179.417 125.079 C 178.252 125.127, 178.015 125.364, 178.813 125.683 M 177.250 127.689 C 178.213 127.941, 179.787 127.941, 180.750 127.689 C 181.713 127.438, 180.925 127.232, 179 127.232 C 177.075 127.232, 176.287 127.438, 177.250 127.689" stroke="none" fill="#f9caa3" fill-rule="evenodd"/><path d="M 164.675 121.404 C 163.938 123.325, 165.020 127.106, 166.114 126.430 C 167.273 125.713, 167.267 120, 166.107 120 C 165.616 120, 164.972 120.632, 164.675 121.404 M 159.116 124.250 C 159.180 126.037, 159.441 126.694, 159.697 125.708 C 160.041 124.387, 160.731 124.094, 162.331 124.591 C 164.478 125.259, 164.480 125.244, 162.595 123.133 C 159.939 120.159, 158.981 120.467, 159.116 124.250" stroke="none" fill="#f19c3c" fill-rule="evenodd"/><path d="M 154.150 123.405 C 154.007 127.122, 153.912 127.230, 152.171 125.655 C 149.816 123.524, 149.346 123.571, 148.710 126 C 148.423 127.100, 148.595 128, 149.094 128 C 149.592 128, 150 127.255, 150 126.345 C 150 124.851, 150.192 124.864, 151.979 126.481 C 153.721 128.057, 154.030 128.086, 154.554 126.721 C 154.881 125.867, 154.958 123.893, 154.724 122.334 C 154.382 120.047, 154.271 120.254, 154.150 123.405 M 156.829 124 C 156.619 126.200, 156.797 128, 157.224 128 C 157.651 128, 158 126.200, 158 124 C 158 121.800, 157.822 120, 157.605 120 C 157.388 120, 157.038 121.800, 156.829 124 M 167.252 123.500 C 167.263 125.700, 167.468 126.482, 167.707 125.238 C 167.946 123.994, 167.937 122.194, 167.687 121.238 C 167.437 120.282, 167.241 121.300, 167.252 123.500 M 81.232 124 C 81.232 125.925, 81.438 126.713, 81.689 125.750 C 81.941 124.787, 81.941 123.213, 81.689 122.250 C 81.438 121.287, 81.232 122.075, 81.232 124 M 150 121.378 C 150 121.585, 150.787 122.373, 151.750 123.128 C 153.336 124.371, 153.371 124.336, 152.128 122.750 C 150.821 121.084, 150 120.555, 150 121.378" stroke="none" fill="#fae8c0" fill-rule="evenodd"/><path d="M 152.079 121.583 C 152.127 122.748, 152.364 122.985, 152.683 122.188 C 152.972 121.466, 152.936 120.603, 152.604 120.271 C 152.272 119.939, 152.036 120.529, 152.079 121.583 M 154.829 124 C 154.619 126.200, 154.797 128, 155.224 128 C 155.651 128, 156 126.200, 156 124 C 156 121.800, 155.822 120, 155.605 120 C 155.388 120, 155.038 121.800, 154.829 124" stroke="none" fill="#fcfcf4" fill-rule="evenodd"/><path d="M -0 100.005 L -0 200.010 100.250 199.755 L 200.500 199.500 200.755 99.750 L 201.010 0 100.505 0 L 0 0 -0 100.005 M 0.481 100.500 C 0.481 155.500, 0.602 178.147, 0.750 150.826 C 0.898 123.506, 0.898 78.506, 0.750 50.826 C 0.602 23.147, 0.481 45.500, 0.481 100.500 M 71 92 L 71 112 76.500 112 L 82 112 82 104.500 L 82 97 90 97 L 98 97 98 92 L 98 87 90 87 C 82.133 87, 82 86.958, 82 84.500 L 82 82 92 82 L 102 82 102 77 L 102 72 86.500 72 L 71 72 71 92 M 115.500 73.665 C 108.172 77.537, 105 83.078, 105 92.010 C 105 104.636, 112.368 112, 125 112 C 134.933 112, 142.459 107.087, 144.874 99.027 C 148.106 88.238, 143.590 77.363, 134.259 73.464 C 129.634 71.531, 119.329 71.642, 115.500 73.665 M 158.718 86.750 C 155.546 94.862, 152.062 103.425, 150.976 105.777 C 149.889 108.129, 149 110.491, 149 111.027 C 149 111.562, 151.700 112, 155 112 C 159.580 112, 161 111.656, 161 110.547 C 161 109.748, 161.522 107.948, 162.161 106.547 C 163.236 104.188, 163.813 104, 170 104 L 176.680 104 178 108 L 179.320 112 185.267 112 C 189.641 112, 191.074 111.669, 190.683 110.750 C 190.391 110.063, 188.291 104.775, 186.016 99 C 181.935 88.642, 179.089 81.608, 176.405 75.250 C 175.103 72.168, 174.760 72, 169.758 72 L 164.484 72 158.718 86.750 M 25.917 79.931 C 21.398 80.814, 15 84.712, 15 86.582 C 15 88.288, 17.980 88.422, 21.389 86.869 C 22.755 86.246, 24.689 86.068, 25.686 86.472 C 27.059 87.028, 26.285 87.524, 22.505 88.511 C 19.758 89.228, 17.180 89.611, 16.776 89.361 C 15.441 88.536, 12.210 90.924, 10.177 94.237 C 7.644 98.366, 7.107 104.189, 9.035 106.638 C 10.351 108.311, 10.338 108.374, 8.906 107.257 C 7.532 106.186, 7.153 106.547, 6.156 109.873 C 5.520 111.996, 5 113.968, 5 114.257 C 5 115.591, 21.058 120.972, 25.089 120.989 C 27.662 121, 30 117.888, 30 114.453 C 30 113.603, 30.956 113, 32.304 113 C 35.830 113, 43.481 107.668, 44.912 104.213 C 46.881 99.459, 46.042 97.671, 41.414 96.755 C 38.701 96.219, 36.203 94.750, 33.922 92.351 L 30.500 88.752 34.760 91.395 C 38.661 93.815, 39.544 93.973, 45.251 93.269 C 51.205 92.534, 51.580 92.321, 53.661 88.500 C 54.859 86.300, 55.875 84.127, 55.919 83.670 C 55.964 83.214, 53.188 83.135, 49.750 83.494 C 44.342 84.060, 42.721 83.801, 37.721 81.574 C 31.608 78.851, 31.510 78.837, 25.917 79.931 M 117.982 84.519 C 116.130 86.491, 115.615 88.150, 115.615 92.155 C 115.615 96.552, 116.020 97.621, 118.491 99.746 C 120.943 101.855, 122.097 102.149, 126.329 101.742 C 133.508 101.053, 136.445 96.742, 134.875 89.199 C 133.870 84.374, 130.621 82, 125.021 82 C 121.321 82, 119.856 82.524, 117.982 84.519 M 168.706 87.562 C 168.405 88.628, 167.868 90.513, 167.512 91.750 C 166.941 93.735, 167.227 94, 169.933 94 C 173.478 94, 173.550 93.690, 171.085 89.062 C 169.515 86.115, 169.176 85.901, 168.706 87.562 M 29 98 C 29 98.550, 29.450 99, 30 99 C 30.550 99, 31 98.550, 31 98 C 31 97.450, 30.550 97, 30 97 C 29.450 97, 29 97.450, 29 98 M 23.825 107.326 C 23.452 109.151, 23.592 109.808, 24.218 109.182 C 24.751 108.649, 25.011 107.377, 24.794 106.356 C 24.503 104.981, 24.251 105.233, 23.825 107.326 M 17.250 110.689 C 18.212 110.941, 19.788 110.941, 20.750 110.689 C 21.712 110.438, 20.925 110.232, 19 110.232 C 17.075 110.232, 16.288 110.438, 17.250 110.689 M 81 124.033 C 81 126.893, 81.419 128, 82.500 128 C 83.325 128, 84 127.325, 84 126.500 C 84 125.675, 84.642 125, 85.427 125 C 86.211 125, 87.059 124.213, 87.311 123.250 C 87.562 122.287, 87.820 122.912, 87.884 124.638 L 88 127.775 97.500 127.917 C 105.984 128.044, 107.003 127.869, 107.030 126.280 C 107.059 124.593, 107.114 124.591, 108.080 126.250 C 108.763 127.423, 110.319 127.995, 112.800 127.985 C 117.778 127.964, 119.226 126.861, 118.830 123.391 C 118.528 120.748, 118.122 120.473, 114.099 120.185 C 111.255 119.982, 109.403 120.335, 108.864 121.185 C 108.262 122.136, 108.026 122.163, 108.015 121.283 C 108.004 120.389, 104.428 120.067, 94.500 120.067 L 81 120.067 81 124.033 M 123.200 121.200 C 121.561 122.839, 121.692 125.500, 123.487 126.989 C 125.423 128.596, 129.723 127.500, 130.311 125.249 C 130.655 123.934, 130.797 124.058, 130.884 125.750 C 131.011 128.218, 133 128.922, 133 126.500 C 133 125.675, 133.844 125, 134.875 125 C 136.208 125, 136.750 124.278, 136.750 122.500 C 136.750 120.413, 136.275 120, 133.875 120 C 131.815 120, 130.991 120.496, 130.970 121.750 C 130.941 123.417, 130.891 123.417, 129.920 121.750 C 128.750 119.741, 124.968 119.432, 123.200 121.200 M 140.642 123.624 C 138.642 127.819, 139.187 128.989, 142.250 127.076 C 143.793 126.112, 144.517 126.052, 144.788 126.864 C 145.288 128.363, 149.279 128.321, 150.800 126.800 C 151.733 125.867, 152 125.867, 152 126.800 C 152 127.467, 153.333 128, 155 128 C 157.833 128, 158 127.778, 158 124 C 158 120.248, 157.819 120, 155.083 120 C 153.479 120, 151.940 120.563, 151.662 121.250 C 151.259 122.250, 151.142 122.250, 151.079 121.250 C 151.036 120.563, 150.325 120, 149.500 120 C 148.442 120, 147.985 121.106, 147.948 123.750 L 147.897 127.500 146.342 123.750 C 144.388 119.041, 142.844 119.007, 140.642 123.624 M 159 124 C 159 126.200, 159.450 128, 160 128 C 160.550 128, 161 127.550, 161 127 C 161 126.450, 161.900 126, 163 126 C 164.100 126, 165 126.450, 165 127 C 165 128.423, 169.346 128.240, 170.925 126.750 C 171.985 125.750, 172.342 125.750, 172.708 126.750 C 173.404 128.648, 182 128.416, 182 126.500 C 182 125.667, 181.111 125, 180 125 C 178.533 125, 178 124.333, 178 122.500 C 178 121.125, 177.550 120, 177 120 C 176.450 120, 175.982 121.463, 175.961 123.250 L 175.922 126.500 174.509 123.250 C 172.782 119.277, 170.508 119.064, 169.162 122.750 L 168.158 125.500 168.079 122.750 C 168.021 120.734, 167.488 120, 166.083 120 C 165.029 120, 163.960 120.563, 163.708 121.250 C 163.342 122.250, 162.985 122.250, 161.925 121.250 C 159.705 119.156, 159 119.819, 159 124 M 104.079 123.583 C 104.127 124.748, 104.364 124.985, 104.683 124.188 C 104.972 123.466, 104.936 122.603, 104.604 122.271 C 104.272 121.939, 104.036 122.529, 104.079 123.583 M 115 124 C 115 124.550, 115.450 125, 116 125 C 116.550 125, 117 124.550, 117 124 C 117 123.450, 116.550 123, 116 123 C 115.450 123, 115 123.450, 115 124 M 125 124 C 125 124.550, 125.675 125, 126.500 125 C 127.325 125, 128 124.550, 128 124 C 128 123.450, 127.325 123, 126.500 123 C 125.675 123, 125 123.450, 125 124" stroke="none" fill="#ffffff" fill-rule="evenodd"/><path d="M 141.543 122.918 C 139.548 126.775, 139.461 126.600, 143.378 126.600 C 146.645 126.600, 146.724 126.507, 145.780 123.798 C 144.371 119.758, 143.293 119.534, 141.543 122.918" stroke="none" fill="#8ec340" fill-rule="evenodd"/><path d="M 101.286 76.500 C 101.294 79.250, 101.488 80.256, 101.718 78.736 C 101.947 77.216, 101.941 74.966, 101.704 73.736 C 101.467 72.506, 101.279 73.750, 101.286 76.500 M 124.269 81.693 C 125.242 81.947, 126.592 81.930, 127.269 81.656 C 127.946 81.382, 127.150 81.175, 125.500 81.195 C 123.850 81.215, 123.296 81.439, 124.269 81.693 M 117.405 84.250 L 115.500 86.500 117.750 84.595 C 118.987 83.547, 120 82.535, 120 82.345 C 120 81.545, 119.195 82.136, 117.405 84.250 M 97.300 92 C 97.300 95.025, 97.487 96.263, 97.716 94.750 C 97.945 93.237, 97.945 90.763, 97.716 89.250 C 97.487 87.737, 97.300 88.975, 97.300 92 M 145.079 88.583 C 145.127 89.748, 145.364 89.985, 145.683 89.188 C 145.972 88.466, 145.936 87.603, 145.604 87.271 C 145.272 86.939, 145.036 87.529, 145.079 88.583 M 18.459 90.067 C 18.096 90.653, 18.014 91.348, 18.276 91.610 C 18.538 91.872, 19.019 91.392, 19.345 90.543 C 20.021 88.781, 19.445 88.471, 18.459 90.067 M 166.879 94.279 C 167.362 94.762, 169.049 94.995, 170.628 94.798 C 173.272 94.468, 173.202 94.399, 169.751 93.921 C 167.601 93.623, 166.376 93.776, 166.879 94.279 M 116 98.378 C 116 98.585, 116.787 99.373, 117.750 100.128 C 119.336 101.371, 119.371 101.336, 118.128 99.750 C 116.821 98.084, 116 97.555, 116 98.378 M 123.750 102.662 C 124.438 102.940, 125.563 102.940, 126.250 102.662 C 126.938 102.385, 126.375 102.158, 125 102.158 C 123.625 102.158, 123.063 102.385, 123.750 102.662 M 108 104.378 C 108 104.585, 108.787 105.373, 109.750 106.128 C 111.336 107.371, 111.371 107.336, 110.128 105.750 C 108.821 104.084, 108 103.555, 108 104.378 M 111.951 123.724 C 111.677 126.047, 111.833 127.567, 112.299 127.101 C 112.765 126.635, 112.989 124.735, 112.798 122.877 C 112.459 119.583, 112.438 119.604, 111.951 123.724 M 84.813 122.683 C 85.534 122.972, 86.397 122.936, 86.729 122.604 C 87.061 122.272, 86.471 122.036, 85.417 122.079 C 84.252 122.127, 84.015 122.364, 84.813 122.683 M 122 123.941 C 122 125.009, 122.385 126.120, 122.856 126.411 C 123.326 126.702, 123.499 125.828, 123.239 124.470 C 122.675 121.519, 122 121.231, 122 123.941 M 134 122.668 C 134.825 123.015, 135.872 123.795, 136.326 124.400 C 136.857 125.107, 137.006 124.965, 136.743 124 C 136.518 123.175, 135.472 122.395, 134.417 122.268 C 133.070 122.104, 132.946 122.223, 134 122.668" stroke="none" fill="#e8f5e8" fill-rule="evenodd"/><path d="M 131.667 120.667 C 130.613 121.720, 130.891 127, 132 127 C 132.550 127, 133 126.550, 133 126 C 133 125.450, 133.675 125, 134.500 125 C 136.577 125, 136.388 123.248, 134.250 122.689 C 132.583 122.254, 132.583 122.226, 134.250 122.116 C 135.213 122.052, 136 121.550, 136 121 C 136 119.883, 132.704 119.629, 131.667 120.667 M 128.564 125.707 C 128.022 127.132, 128.136 127.247, 129.124 126.267 C 129.808 125.588, 130.115 124.781, 129.807 124.474 C 129.499 124.166, 128.940 124.721, 128.564 125.707" stroke="none" fill="#5bbe67" fill-rule="evenodd"/><path d="M 93.750 72.706 C 94.987 72.944, 97.013 72.944, 98.250 72.706 C 99.487 72.467, 98.475 72.272, 96 72.272 C 93.525 72.272, 92.513 72.467, 93.750 72.706 M 164.643 72.768 C 164.382 73.191, 166.043 73.392, 168.334 73.216 C 175.063 72.696, 175.882 72.241, 170.309 72.116 C 167.454 72.052, 164.904 72.346, 164.643 72.768 M 139 77.500 C 140.292 78.875, 141.574 80, 141.849 80 C 142.124 80, 141.292 78.875, 140 77.500 C 138.708 76.125, 137.426 75, 137.151 75 C 136.876 75, 137.708 76.125, 139 77.500 M 81.384 82.442 C 81.080 83.234, 80.986 84.697, 81.176 85.692 C 81.473 87.243, 82.620 87.510, 89.264 87.568 L 97.007 87.635 89.503 87.275 C 82.330 86.932, 82 86.809, 82 84.494 C 82 82.120, 82.191 82.066, 91.750 81.746 L 101.500 81.419 91.719 81.209 C 83.982 81.044, 81.822 81.301, 81.384 82.442 M 132.500 84 C 133.495 85.100, 134.535 86, 134.810 86 C 135.085 86, 134.495 85.100, 133.500 84 C 132.505 82.900, 131.465 82, 131.190 82 C 130.915 82, 131.505 82.900, 132.500 84 M 169.500 85 C 169.840 85.550, 170.316 86, 170.559 86 C 170.802 86, 171 85.550, 171 85 C 171 84.450, 170.523 84, 169.941 84 C 169.359 84, 169.160 84.450, 169.500 85 M 15.768 87.168 C 16.350 87.750, 17.415 88.028, 18.137 87.788 C 18.886 87.538, 18.432 87.085, 17.080 86.731 C 15.417 86.296, 15.026 86.426, 15.768 87.168 M 23.750 88.662 C 24.438 88.940, 25.563 88.940, 26.250 88.662 C 26.938 88.385, 26.375 88.158, 25 88.158 C 23.625 88.158, 23.063 88.385, 23.750 88.662 M 31.570 89.887 C 31.269 90.374, 31.805 91.387, 32.761 92.137 C 34.297 93.341, 34.355 93.314, 33.259 91.908 C 32.576 91.032, 32.313 90.020, 32.675 89.658 C 33.037 89.296, 33.060 89, 32.726 89 C 32.391 89, 31.871 89.399, 31.570 89.887 M 145.195 92.500 C 145.215 94.150, 145.439 94.704, 145.693 93.731 C 145.947 92.758, 145.930 91.408, 145.656 90.731 C 145.382 90.054, 145.175 90.850, 145.195 92.500 M 45.269 92.693 C 46.242 92.947, 47.592 92.930, 48.269 92.656 C 48.946 92.382, 48.150 92.175, 46.500 92.195 C 44.850 92.215, 44.296 92.439, 45.269 92.693 M 173.079 93.583 C 173.127 94.748, 173.364 94.985, 173.683 94.188 C 173.972 93.466, 173.936 92.603, 173.604 92.271 C 173.272 91.939, 173.036 92.529, 173.079 93.583 M 39.813 93.683 C 40.534 93.972, 41.397 93.936, 41.729 93.604 C 42.061 93.272, 41.471 93.036, 40.417 93.079 C 39.252 93.127, 39.015 93.364, 39.813 93.683 M 105.079 95.583 C 105.127 96.748, 105.364 96.985, 105.683 96.188 C 105.972 95.466, 105.936 94.603, 105.604 94.271 C 105.272 93.939, 105.036 94.529, 105.079 95.583 M 85.269 96.693 C 86.242 96.947, 87.592 96.930, 88.269 96.656 C 88.946 96.382, 88.150 96.175, 86.500 96.195 C 84.850 96.215, 84.296 96.439, 85.269 96.693 M 92.250 96.689 C 93.213 96.941, 94.787 96.941, 95.750 96.689 C 96.713 96.438, 95.925 96.232, 94 96.232 C 92.075 96.232, 91.287 96.438, 92.250 96.689 M 81.336 104 C 81.336 108.125, 81.513 109.813, 81.728 107.750 C 81.944 105.688, 81.944 102.313, 81.728 100.250 C 81.513 98.188, 81.336 99.875, 81.336 104 M 131.872 100.750 C 130.629 102.336, 130.664 102.371, 132.250 101.128 C 133.213 100.373, 134 99.585, 134 99.378 C 134 98.555, 133.179 99.084, 131.872 100.750 M 185.031 99.500 C 185.031 100.050, 185.467 101.175, 186 102 C 186.533 102.825, 186.969 103.050, 186.969 102.500 C 186.969 101.950, 186.533 100.825, 186 100 C 185.467 99.175, 185.031 98.950, 185.031 99.500 M 162.655 103.750 C 162.400 104.162, 165.705 104.500, 170 104.500 C 174.295 104.500, 177.600 104.162, 177.345 103.750 C 177.091 103.338, 173.785 103, 170 103 C 166.215 103, 162.909 103.338, 162.655 103.750 M 139.405 106.250 L 137.500 108.500 139.750 106.595 C 141.864 104.805, 142.455 104, 141.655 104 C 141.465 104, 140.453 105.013, 139.405 106.250 M 149.607 109.582 C 149.273 110.452, 149 111.352, 149 111.582 C 149 111.812, 151.588 111.917, 154.750 111.815 L 160.500 111.630 155.301 111.265 C 151.261 110.980, 150.226 110.576, 150.658 109.450 C 150.964 108.652, 150.989 108, 150.714 108 C 150.439 108, 149.941 108.712, 149.607 109.582 M 179.252 110 C 179.544 111.082, 181.167 111.528, 185.079 111.600 L 190.500 111.700 185.519 111.286 C 182.780 111.058, 180.158 110.338, 179.693 109.686 C 179.106 108.862, 178.971 108.958, 179.252 110 M 110.951 123.724 C 110.677 126.047, 110.833 127.567, 111.299 127.101 C 111.765 126.635, 111.989 124.735, 111.798 122.877 C 111.459 119.583, 111.438 119.604, 110.951 123.724 M 124 123.941 C 124 124.459, 124.445 125.157, 124.989 125.493 C 125.555 125.843, 125.723 125.442, 125.382 124.552 C 124.717 122.820, 124 122.503, 124 123.941 M 127.564 124.707 C 127.022 126.132, 127.136 126.247, 128.124 125.267 C 128.808 124.588, 129.115 123.781, 128.807 123.474 C 128.499 123.166, 127.940 123.721, 127.564 124.707" stroke="none" fill="#6abd86" fill-rule="evenodd"/><path d="M 163.947 75.750 C 163.395 77.263, 161.951 80.975, 160.738 84 C 159.524 87.025, 158.637 89.838, 158.766 90.250 C 158.895 90.662, 158.646 91, 158.213 91 C 157.780 91, 157.361 91.787, 157.281 92.750 C 157.202 93.713, 156.347 96.300, 155.382 98.500 C 154.418 100.700, 153.712 102.838, 153.814 103.250 C 153.916 103.662, 153.523 104, 152.941 104 C 152.359 104, 152.160 104.450, 152.500 105 C 152.840 105.550, 152.754 106, 152.309 106.001 C 151.864 106.001, 151.435 107.126, 151.356 108.501 C 151.224 110.789, 151.561 110.999, 155.356 110.990 C 159.239 110.980, 159.606 110.728, 161.176 106.990 L 162.851 103 169.934 103 L 177.016 103 178.617 107 C 180.170 110.883, 180.357 111, 184.981 111 L 189.745 111 185.286 99.750 C 182.834 93.563, 179.788 86.025, 178.517 83 C 177.246 79.975, 175.905 76.487, 175.536 75.250 C 174.957 73.309, 174.183 73, 169.908 73 C 165.410 73, 164.858 73.255, 163.947 75.750 M 168.156 86.750 C 167.558 88.263, 166.780 90.737, 166.426 92.250 C 165.805 94.908, 165.921 95, 169.892 95 C 172.151 95, 174 94.723, 174 94.384 C 174 92.912, 170.470 84, 169.887 84 C 169.532 84, 168.754 85.237, 168.156 86.750 M 124.488 121.385 C 123.550 122.071, 122.949 123.497, 123.153 124.555 C 123.559 126.664, 126.671 127.729, 128.139 126.261 C 128.708 125.692, 128.185 125.366, 126.783 125.417 C 123.655 125.531, 123.832 122.748, 127 121.999 C 128.986 121.529, 129.160 121.277, 127.847 120.773 C 126.938 120.423, 125.427 120.699, 124.488 121.385 M 114.158 124 C 114.158 125.375, 114.385 125.938, 114.662 125.250 C 114.940 124.563, 114.940 123.438, 114.662 122.750 C 114.385 122.063, 114.158 122.625, 114.158 124 M 117.242 124.767 C 117.074 127.165, 117.182 127.274, 118.129 125.654 C 118.756 124.580, 118.836 123.436, 118.320 122.920 C 117.804 122.404, 117.353 123.177, 117.242 124.767" stroke="none" fill="#1b8563" fill-rule="evenodd"/><path d="M 72 91.901 L 72 112 76.458 112 L 80.916 112 81.208 104.250 L 81.500 96.500 89.250 96.208 L 97 95.916 97 92 L 97 88.084 89.250 87.792 L 81.500 87.500 81.500 84.500 L 81.500 81.500 91.250 81.214 L 101 80.928 100.994 76.714 L 100.987 72.500 86.494 72.151 L 72 71.801 72 91.901 M 117.579 73.830 C 106.192 77.872, 101.808 92.319, 108.658 103.229 C 116.597 115.875, 139.128 113.232, 143.861 99.101 C 147.781 87.398, 141.459 75.551, 129.980 73.089 C 123.595 71.720, 123.509 71.725, 117.579 73.830 M 23.914 80.956 C 20.613 81.956, 16 84.963, 16 86.115 C 16 87.634, 19.834 87.088, 24.470 84.909 C 28.333 83.093, 29.394 82.975, 32.526 84.009 C 34.511 84.664, 35.941 85.392, 35.706 85.628 C 35.470 85.863, 34.061 85.593, 32.574 85.028 C 24.739 82.049, 25.231 85.551, 33.251 89.848 C 39.166 93.018, 39.820 93.151, 45.495 92.343 C 51.166 91.535, 51.587 91.282, 53.303 87.637 C 54.301 85.518, 54.966 83.633, 54.782 83.448 C 54.597 83.264, 52.532 83.542, 50.193 84.068 C 45.564 85.108, 42.637 84.635, 36.500 81.856 C 32.284 79.946, 28.207 79.655, 23.914 80.956 M 117.687 83.805 C 115.434 86.156, 115 87.501, 115 92.130 C 115 96.772, 115.411 98.037, 117.581 100.076 C 119.667 102.035, 121.216 102.500, 125.667 102.500 C 130.460 102.500, 131.486 102.137, 133.587 99.694 C 137.262 95.421, 137.018 87.864, 133.077 83.923 C 130.643 81.489, 129.335 81, 125.264 81 C 121.212 81, 119.914 81.480, 117.687 83.805 M 12.724 92.088 C 8.505 96.321, 6.965 103.199, 9.588 106.097 C 13.467 110.383, 24 110.993, 24 106.931 C 24 104.417, 20.874 96.377, 18.229 92.088 L 16.124 88.676 12.724 92.088 M 20.329 89.636 C 19.529 89.963, 20.103 92.133, 22.143 96.493 C 24.212 100.912, 25.032 104.043, 24.814 106.686 C 24.503 110.468, 24.460 110.503, 19.813 110.802 C 16.600 111.009, 13.880 110.469, 11.168 109.086 L 7.210 107.067 6.541 110.635 C 6.172 112.598, 6.013 114.295, 6.186 114.406 C 9.147 116.302, 23.621 120.957, 26.651 120.988 C 27.284 120.995, 28.190 119.358, 28.664 117.350 C 29.568 113.531, 30.741 112.487, 35.173 111.560 C 39.044 110.750, 43.851 106.331, 44.846 102.667 C 45.925 98.692, 44.699 97, 40.739 97 C 38.611 97, 36.447 95.823, 33.384 93 C 29.854 89.746, 28.341 89.015, 25.272 89.079 C 23.198 89.122, 20.973 89.373, 20.329 89.636 M 28.446 97.087 C 27.416 98.755, 29.733 100.667, 31.113 99.287 C 32.267 98.133, 31.545 96, 30 96 C 29.515 96, 28.816 96.489, 28.446 97.087 M 82 123.500 C 82 127.414, 82.429 127.713, 84.734 125.409 C 86.085 124.058, 86.112 123.684, 84.912 122.925 C 83.770 122.201, 83.834 122.028, 85.250 122.015 C 86.213 122.007, 87 121.550, 87 121 C 87 120.450, 85.875 120, 84.500 120 C 82.310 120, 82 120.433, 82 123.500 M 88 123.500 C 88 125.425, 88.450 127, 89 127 C 89.550 127, 90 125.875, 90 124.500 C 90 122.861, 90.559 122, 91.622 122 C 92.930 122, 93.010 122.283, 92.036 123.456 C 90.882 124.848, 91.351 127.001, 92.809 126.999 C 94.006 126.998, 93.875 121.542, 92.660 120.768 C 89.763 118.925, 88 119.959, 88 123.500 M 96.252 123.500 C 96.263 125.700, 96.468 126.482, 96.707 125.238 C 96.946 123.994, 96.937 122.194, 96.687 121.238 C 96.437 120.282, 96.241 121.300, 96.252 123.500 M 99 123.500 C 99 126.676, 99.255 126.991, 101.750 126.900 L 104.500 126.801 102 126 C 100.333 125.466, 100.083 125.166, 101.250 125.100 C 102.213 125.045, 103 124.583, 103 124.073 C 103 123.564, 102.213 122.941, 101.250 122.689 C 99.933 122.345, 100.057 122.203, 101.750 122.116 C 104.839 121.957, 104.608 120, 101.500 120 C 99.310 120, 99 120.433, 99 123.500 M 105.712 120.622 C 104.625 121.708, 104.864 127, 106 127 C 106.550 127, 107.014 126.213, 107.032 125.250 C 107.062 123.583, 107.127 123.583, 108.392 125.250 C 110.395 127.888, 111.014 127.387, 110.864 123.250 C 110.766 120.556, 110.598 120.189, 110.268 121.949 L 109.809 124.398 108.116 122.154 C 107.185 120.920, 106.103 120.230, 105.712 120.622 M 113 123.639 C 113 126.492, 113.340 126.982, 115.250 126.884 C 116.943 126.797, 117.067 126.655, 115.750 126.311 C 113.165 125.635, 113.544 122.210, 116.250 121.790 C 118.304 121.471, 118.261 121.390, 115.750 120.859 C 113.180 120.315, 113 120.497, 113 123.639" stroke="none" fill="#1a5ca0" fill-rule="evenodd"/><path d="" stroke="none" fill="#fbfbfa" fill-rule="evenodd"/></svg>